<svg xmlns="http://www.w3.org/2000/svg" xmlns:xlink="http://www.w3.org/1999/xlink" id="Layer_1" x="0px" y="0px" viewBox="0 0 151 151" style="enable-background:new 0 0 151 151;" xml:space="preserve"><style type="text/css">	.st0{fill:#FFA500;stroke:#020202;stroke-width:3.9939;}</style><circle class="st0" cx="75.6" cy="75.1" r="73"></circle><g>	<path d="M66,89.7h10.1c-3.4,8.6-6.7,17-10,25.4c-1.2-0.1-2.3-0.1-3.4-0.2c-1.8-0.3-3.7-0.6-5.4-1.2c-3.6-1.2-6.6-3.2-8.8-6.3  c-1.6-2.2-2.5-4.6-3-7.3c-0.3-1.7-0.5-3.5-0.5-5.3c0.1-3.4,0.7-6.7,1.6-10c2.2-7.7,4.4-15.4,6.6-23.1c1.4-5,2.9-10.1,4.4-15.1  c0.9-3.3,1.9-6.6,2.8-9.9c0.1-0.3,0.2-0.6,0.4-0.9h20c0.4,0.5,0.2,0.8,0.1,1.2c-0.9,3.1-1.8,6.3-2.7,9.4  c-1.8,6.3-3.6,12.6-5.4,18.9c-2,7.1-4,14.2-6,21.3C66.4,87.6,66,88.5,66,89.7L66,89.7z"></path>	<path d="M90,55.4c1.7,0.2,3.3,0.5,4.8,0.9c2.5,0.8,5,1.8,7.1,3.4c3,2.3,5.3,5.1,6.6,8.6c1.2,3.2,1.7,6.6,1.4,10  c-0.4,4.6-1.7,8.9-3.8,13c-2.5,4.8-6.1,8.9-10.2,12.4c-2.5,2.2-5.3,4-8.2,5.6c-3.8,2.1-7.8,3.7-12.1,4.7c-2.2,0.5-4.4,0.9-6.6,1  c-0.8,0-1.6,0.1-2.6,0.2c8.4-12.3,16.7-24.3,24.9-36.4c-0.4-0.6-0.9-0.4-1.3-0.4c-2.5,0-5.1,0-7.6,0c-0.4,0-0.9,0-1.5,0  C84,70.7,87,63.1,90,55.4L90,55.4z"></path></g></svg>